# Exported from Wings 3D 2.2.6.1
mtllib ringAndTube2.mtl
o Cylinder5
#32 vertices, 60 faces
v 1.00000000 1.00000000 0.0000000e+0
v 0.92387953 1.00000000 0.38268343
v 0.70710678 1.00000000 0.70710678
v 0.38268343 1.00000000 0.92387953
v 6.1232340e-17 1.00000000 1.00000000
v -0.38268343 1.00000000 0.92387953
v -0.70710678 1.00000000 0.70710678
v -0.92387953 1.00000000 0.38268343
v -1.00000000 1.00000000 1.2246468e-16
v -0.92387953 1.00000000 -0.38268343
v -0.70710678 1.00000000 -0.70710678
v -0.38268343 1.00000000 -0.92387953
v -1.8369702e-16 1.00000000 -1.00000000
v 0.38268343 1.00000000 -0.92387953
v 0.70710678 1.00000000 -0.70710678
v 0.92387953 1.00000000 -0.38268343
v 1.00000000 -1.00000000 0.0000000e+0
v 0.92387953 -1.00000000 0.38268343
v 0.70710678 -1.00000000 0.70710678
v 0.38268343 -1.00000000 0.92387953
v 6.1232340e-17 -1.00000000 1.00000000
v -0.38268343 -1.00000000 0.92387953
v -0.70710678 -1.00000000 0.70710678
v -0.92387953 -1.00000000 0.38268343
v -1.00000000 -1.00000000 1.2246468e-16
v -0.92387953 -1.00000000 -0.38268343
v -0.70710678 -1.00000000 -0.70710678
v -0.38268343 -1.00000000 -0.92387953
v -1.8369702e-16 -1.00000000 -1.00000000
v 0.38268343 -1.00000000 -0.92387953
v 0.70710678 -1.00000000 -0.70710678
v 0.92387953 -1.00000000 -0.38268343
vn 0.89090915 0.45418155 -1.2606070e-16
vn 0.82309273 0.45418155 0.34093617
vn 0.38696817 0.83696551 0.38696817
vn 0.30398942 0.60744384 0.73389537
vn 0.0000000e+0 0.83696551 0.54725564
vn -0.30398942 0.60744384 0.73389537
vn -0.38696817 0.83696551 0.38696817
vn -0.73389537 0.60744384 0.30398942
vn -0.89090915 0.45418155 1.1345463e-16
vn -0.82309273 0.45418155 -0.34093617
vn -0.38696817 0.83696551 -0.38696817
vn -0.30398942 0.60744384 -0.73389537
vn 0.0000000e+0 0.83696551 -0.54725564
vn 0.30398942 0.60744384 -0.73389537
vn 0.38696817 0.83696551 -0.38696817
vn 0.73389537 0.60744384 -0.30398942
vn 0.96901550 -0.24699991 -1.3711249e-16
vn 0.50559828 -0.83696551 0.20942567
vn 0.56169920 -0.60744384 0.56169920
vn 0.20942567 -0.83696551 0.50559828
vn 0.0000000e+0 -0.60744384 0.79436263
vn -0.20942567 -0.83696551 0.50559828
vn -0.56169920 -0.60744384 0.56169920
vn -0.64691385 -0.71393252 0.26796049
vn -0.96901550 -0.24699991 1.2340124e-16
vn -0.50559828 -0.83696551 -0.20942567
vn -0.56169920 -0.60744384 -0.56169920
vn -0.20942567 -0.83696551 -0.50559828
vn -1.1239969e-16 -0.60744384 -0.79436263
vn 0.20942567 -0.83696551 -0.50559828
vn 0.56169920 -0.60744384 -0.56169920
vn 0.64691385 -0.71393252 -0.26796049
g Cylinder5_default
usemtl blue
s 1
f 1//1 16//16 2//2
f 2//2 16//16 3//3
f 2//2 17//17 1//1
f 3//3 15//15 4//4
f 4//4 14//14 5//5
f 4//4 19//19 3//3
f 5//5 13//13 6//6
f 6//6 12//12 7//7
f 6//6 21//21 5//5
f 6//6 23//23 22//22
f 7//7 11//11 8//8
f 7//7 23//23 6//6
f 8//8 10//10 9//9
f 8//8 23//23 7//7
f 8//8 25//25 24//24
f 9//9 25//25 8//8
f 10//10 8//8 11//11
f 10//10 25//25 9//9
f 10//10 27//27 26//26
f 11//11 7//7 12//12
f 11//11 27//27 10//10
f 12//12 6//6 13//13
f 12//12 27//27 11//11
f 12//12 29//29 28//28
f 13//13 5//5 14//14
f 13//13 29//29 12//12
f 14//14 4//4 15//15
f 14//14 29//29 13//13
f 14//14 31//31 30//30
f 15//15 3//3 16//16
f 15//15 31//31 14//14
f 16//16 31//31 15//15
f 18//18 17//17 2//2
f 18//18 32//32 17//17
f 19//19 31//31 18//18
f 20//20 19//19 4//4
f 20//20 30//30 19//19
f 21//21 29//29 20//20
f 22//22 21//21 6//6
f 22//22 28//28 21//21
f 23//23 27//27 22//22
f 24//24 23//23 8//8
f 24//24 26//26 23//23
f 25//25 26//26 24//24
f 26//26 25//25 10//10
f 27//27 23//23 26//26
f 28//28 22//22 27//27
f 28//28 27//27 12//12
f 29//29 21//21 28//28
f 30//30 20//20 29//29
f 30//30 29//29 14//14
f 31//31 19//19 30//30
f 32//32 18//18 31//31
f 32//32 31//31 16//16
g Cylinder5_green
usemtl blue
s 1
f 1//1 17//17 16//16
f 16//16 17//17 32//32
g Cylinder5_red
usemtl blue
s 1
f 2//2 19//19 18//18
f 3//3 19//19 2//2
g Cylinder5_yellow
usemtl blue
s 1
f 4//4 21//21 20//20
f 5//5 21//21 4//4
o Torus5
#128 vertices, 256 faces
v 1.25000000 0.0000000e+0 0.0000000e+0
v 1.17677670 -0.17677670 0.0000000e+0
v 1.00000000 -0.25000000 0.0000000e+0
v 0.82322330 -0.17677670 0.0000000e+0
v 0.75000000 -3.0616170e-17 0.0000000e+0
v 0.82322330 0.17677670 0.0000000e+0
v 1.00000000 0.25000000 0.0000000e+0
v 1.17677670 0.17677670 0.0000000e+0
v 1.15484942 0.0000000e+0 0.47835429
v 1.08719990 -0.17677670 0.45033294
v 0.92387953 -0.25000000 0.38268343
v 0.76055916 -0.17677670 0.31503392
v 0.69290965 -3.0616170e-17 0.28701257
v 0.76055916 0.17677670 0.31503392
v 0.92387953 0.25000000 0.38268343
v 1.08719990 0.17677670 0.45033294
v 0.88388348 0.0000000e+0 0.88388348
v 0.83210678 -0.17677670 0.83210678
v 0.70710678 -0.25000000 0.70710678
v 0.58210678 -0.17677670 0.58210678
v 0.53033009 -3.0616170e-17 0.53033009
v 0.58210678 0.17677670 0.58210678
v 0.70710678 0.25000000 0.70710678
v 0.83210678 0.17677670 0.83210678
v 0.47835429 0.0000000e+0 1.15484942
v 0.45033294 -0.17677670 1.08719990
v 0.38268343 -0.25000000 0.92387953
v 0.31503392 -0.17677670 0.76055916
v 0.28701257 -3.0616170e-17 0.69290965
v 0.31503392 0.17677670 0.76055916
v 0.38268343 0.25000000 0.92387953
v 0.45033294 0.17677670 1.08719990
v 7.6540425e-17 0.0000000e+0 1.25000000
v 7.2056791e-17 -0.17677670 1.17677670
v 6.1232340e-17 -0.25000000 1.00000000
v 5.0407889e-17 -0.17677670 0.82322330
v 4.5924255e-17 -3.0616170e-17 0.75000000
v 5.0407889e-17 0.17677670 0.82322330
v 6.1232340e-17 0.25000000 1.00000000
v 7.2056791e-17 0.17677670 1.17677670
v -0.47835429 0.0000000e+0 1.15484942
v -0.45033294 -0.17677670 1.08719990
v -0.38268343 -0.25000000 0.92387953
v -0.31503392 -0.17677670 0.76055916
v -0.28701257 -3.0616170e-17 0.69290965
v -0.31503392 0.17677670 0.76055916
v -0.38268343 0.25000000 0.92387953
v -0.45033294 0.17677670 1.08719990
v -0.88388348 0.0000000e+0 0.88388348
v -0.83210678 -0.17677670 0.83210678
v -0.70710678 -0.25000000 0.70710678
v -0.58210678 -0.17677670 0.58210678
v -0.53033009 -3.0616170e-17 0.53033009
v -0.58210678 0.17677670 0.58210678
v -0.70710678 0.25000000 0.70710678
v -0.83210678 0.17677670 0.83210678
v -1.15484942 0.0000000e+0 0.47835429
v -1.08719990 -0.17677670 0.45033294
v -0.92387953 -0.25000000 0.38268343
v -0.76055916 -0.17677670 0.31503392
v -0.69290965 -3.0616170e-17 0.28701257
v -0.76055916 0.17677670 0.31503392
v -0.92387953 0.25000000 0.38268343
v -1.08719990 0.17677670 0.45033294
v -1.25000000 0.0000000e+0 1.5308085e-16
v -1.17677670 -0.17677670 1.4411358e-16
v -1.00000000 -0.25000000 1.2246468e-16
v -0.82322330 -0.17677670 1.0081578e-16
v -0.75000000 -3.0616170e-17 9.1848510e-17
v -0.82322330 0.17677670 1.0081578e-16
v -1.00000000 0.25000000 1.2246468e-16
v -1.17677670 0.17677670 1.4411358e-16
v -1.15484942 0.0000000e+0 -0.47835429
v -1.08719990 -0.17677670 -0.45033294
v -0.92387953 -0.25000000 -0.38268343
v -0.76055916 -0.17677670 -0.31503392
v -0.69290965 -3.0616170e-17 -0.28701257
v -0.76055916 0.17677670 -0.31503392
v -0.92387953 0.25000000 -0.38268343
v -1.08719990 0.17677670 -0.45033294
v -0.88388348 0.0000000e+0 -0.88388348
v -0.83210678 -0.17677670 -0.83210678
v -0.70710678 -0.25000000 -0.70710678
v -0.58210678 -0.17677670 -0.58210678
v -0.53033009 -3.0616170e-17 -0.53033009
v -0.58210678 0.17677670 -0.58210678
v -0.70710678 0.25000000 -0.70710678
v -0.83210678 0.17677670 -0.83210678
v -0.47835429 0.0000000e+0 -1.15484942
v -0.45033294 -0.17677670 -1.08719990
v -0.38268343 -0.25000000 -0.92387953
v -0.31503392 -0.17677670 -0.76055916
v -0.28701257 -3.0616170e-17 -0.69290965
v -0.31503392 0.17677670 -0.76055916
v -0.38268343 0.25000000 -0.92387953
v -0.45033294 0.17677670 -1.08719990
v -2.2962127e-16 0.0000000e+0 -1.25000000
v -2.1617037e-16 -0.17677670 -1.17677670
v -1.8369702e-16 -0.25000000 -1.00000000
v -1.5122367e-16 -0.17677670 -0.82322330
v -1.3777276e-16 -3.0616170e-17 -0.75000000
v -1.5122367e-16 0.17677670 -0.82322330
v -1.8369702e-16 0.25000000 -1.00000000
v -2.1617037e-16 0.17677670 -1.17677670
v 0.47835429 0.0000000e+0 -1.15484942
v 0.45033294 -0.17677670 -1.08719990
v 0.38268343 -0.25000000 -0.92387953
v 0.31503392 -0.17677670 -0.76055916
v 0.28701257 -3.0616170e-17 -0.69290965
v 0.31503392 0.17677670 -0.76055916
v 0.38268343 0.25000000 -0.92387953
v 0.45033294 0.17677670 -1.08719990
v 0.88388348 0.0000000e+0 -0.88388348
v 0.83210678 -0.17677670 -0.83210678
v 0.70710678 -0.25000000 -0.70710678
v 0.58210678 -0.17677670 -0.58210678
v 0.53033009 -3.0616170e-17 -0.53033009
v 0.58210678 0.17677670 -0.58210678
v 0.70710678 0.25000000 -0.70710678
v 0.83210678 0.17677670 -0.83210678
v 1.15484942 0.0000000e+0 -0.47835429
v 1.08719990 -0.17677670 -0.45033294
v 0.92387953 -0.25000000 -0.38268343
v 0.76055916 -0.17677670 -0.31503392
v 0.69290965 -3.0616170e-17 -0.28701257
v 0.76055916 0.17677670 -0.31503392
v 0.92387953 0.25000000 -0.38268343
v 1.08719990 0.17677670 -0.45033294
vn 1.00000000 0.0000000e+0 0.0000000e+0
vn 0.70509497 -0.70911289 3.7919832e-18
vn -6.0258660e-16 -1.00000000 0.0000000e+0
vn -0.70509498 -0.70911288 9.4799581e-18
vn -1.00000000 -3.0545499e-17 0.0000000e+0
vn -0.70509498 0.70911288 3.7919832e-18
vn -6.0258660e-16 1.00000000 0.0000000e+0
vn 0.70509497 0.70911289 1.8959916e-18
vn 0.92387953 0.0000000e+0 0.38268343
vn 0.65142280 -0.70911289 0.26982816
vn -3.3730951e-10 -1.00000000 9.6048647e-10
vn -0.65142282 -0.70911288 -0.26982816
vn -0.92387954 -4.5818249e-17 -0.38268342
vn -0.65142282 0.70911288 -0.26982816
vn -3.3730960e-10 1.00000000 9.6048645e-10
vn 0.65142280 0.70911289 0.26982816
vn 0.70710678 0.0000000e+0 0.70710678
vn 0.49857743 -0.70911289 0.49857743
vn 6.7790993e-17 -1.00000000 1.5064665e-16
vn -0.49857744 -0.70911287 -0.49857744
vn -0.70710678 -6.1090999e-17 -0.70710678
vn -0.49857744 0.70911287 -0.49857744
vn 0.0000000e+0 1.00000000 6.0258661e-17
vn 0.49857743 0.70911289 0.49857743
vn 0.38268343 -7.6363750e-18 0.92387953
vn 0.26982816 -0.70911289 0.65142280
vn 9.6048652e-10 -1.00000000 -3.3730942e-10
vn -0.26982816 -0.70911288 -0.65142282
vn -0.38268342 -6.8727373e-17 -0.92387954
vn -0.26982816 0.70911288 -0.65142282
vn 9.6048653e-10 1.00000000 -3.3730942e-10
vn 0.26982816 0.70911289 0.65142280
vn 1.5272750e-17 0.0000000e+0 1.00000000
vn 9.4799580e-18 -0.70911289 0.70509497
vn 0.0000000e+0 -1.00000000 3.0129330e-17
vn -2.2751899e-17 -0.70911288 -0.70509498
vn -3.0545499e-17 -6.1090999e-17 -1.00000000
vn -1.8959916e-17 0.70911288 -0.70509498
vn 0.0000000e+0 1.00000000 3.0129330e-17
vn 7.5839664e-18 0.70911289 0.70509497
vn -0.38268343 0.0000000e+0 0.92387953
vn -0.26982816 -0.70911289 0.65142280
vn -9.6048652e-10 -1.00000000 -3.3730936e-10
vn 0.26982816 -0.70911288 -0.65142282
vn 0.38268342 -1.1454562e-16 -0.92387954
vn 0.26982816 0.70911288 -0.65142282
vn -9.6048652e-10 1.00000000 -3.3730937e-10
vn -0.26982816 0.70911289 0.65142280
vn -0.70710678 0.0000000e+0 0.70710678
vn -0.49857743 -0.70911289 0.49857743
vn 0.0000000e+0 -1.00000000 1.1298499e-16
vn 0.49857744 -0.70911287 -0.49857744
vn 0.70710678 -1.0690925e-16 -0.70710678
vn 0.49857744 0.70911287 -0.49857744
vn 0.0000000e+0 1.00000000 8.2855658e-17
vn -0.49857743 0.70911289 0.49857743
vn -0.92387953 1.5272750e-17 0.38268343
vn -0.65142280 -0.70911289 0.26982816
vn 3.3730935e-10 -1.00000000 9.6048645e-10
vn 0.65142282 -0.70911288 -0.26982816
vn 0.92387954 -5.3454624e-17 -0.38268342
vn 0.65142282 0.70911288 -0.26982816
vn 3.3730935e-10 1.00000000 9.6048646e-10
vn -0.65142280 0.70911289 0.26982816
vn -1.00000000 0.0000000e+0 3.0545499e-17
vn -0.70509497 -0.70911289 8.9111605e-17
vn 1.5064665e-16 -1.00000000 9.0387991e-17
vn 0.70509498 -0.70911288 -2.6543883e-17
vn 1.00000000 -3.0545499e-17 -3.0545499e-17
vn 0.70509498 0.70911288 -2.6543883e-17
vn 1.5064665e-16 1.00000000 9.0387991e-17
vn -0.70509497 0.70911289 7.9631647e-17
vn -0.92387953 7.6363750e-18 -0.38268343
vn -0.65142280 -0.70911289 -0.26982816
vn 3.3730954e-10 -1.00000000 -9.6048647e-10
vn 0.65142282 -0.70911288 0.26982816
vn 0.92387954 -4.5818249e-17 0.38268342
vn 0.65142282 0.70911288 0.26982816
vn 3.3730958e-10 1.00000000 -9.6048645e-10
vn -0.65142280 0.70911289 -0.26982816
vn -0.70710678 0.0000000e+0 -0.70710678
vn -0.49857743 -0.70911289 -0.49857743
vn -6.7790993e-17 -1.00000000 -1.5064665e-16
vn 0.49857744 -0.70911287 0.49857744
vn 0.70710678 -6.1090999e-17 0.70710678
vn 0.49857744 0.70911287 0.49857744
vn 0.0000000e+0 1.00000000 -6.0258661e-17
vn -0.49857743 0.70911289 -0.49857743
vn -0.38268343 -7.6363750e-18 -0.92387953
vn -0.26982816 -0.70911289 -0.65142280
vn -9.6048653e-10 -1.00000000 3.3730938e-10
vn 0.26982816 -0.70911288 0.65142282
vn 0.38268342 -6.8727373e-17 0.92387954
vn 0.26982816 0.70911288 0.65142282
vn -9.6048653e-10 1.00000000 3.3730935e-10
vn -0.26982816 0.70911289 -0.65142280
vn -9.1636498e-17 0.0000000e+0 -1.00000000
vn -7.0151689e-17 -0.70911289 -0.70509497
vn 0.0000000e+0 -1.00000000 -9.0387991e-17
vn 6.0671732e-17 -0.70911288 0.70509498
vn 9.1636498e-17 -9.1636498e-17 1.00000000
vn 7.7735656e-17 0.70911288 0.70509498
vn 0.0000000e+0 1.00000000 -1.0545266e-16
vn -5.6879748e-17 0.70911289 -0.70509497
vn 0.38268343 -7.6363750e-18 -0.92387953
vn 0.26982816 -0.70911289 -0.65142280
vn 9.6048652e-10 -1.00000000 3.3730935e-10
vn -0.26982816 -0.70911288 0.65142282
vn -0.38268342 -9.9272873e-17 0.92387954
vn -0.26982816 0.70911288 0.65142282
vn 9.6048653e-10 1.00000000 3.3730937e-10
vn 0.26982816 0.70911289 -0.65142280
vn 0.70710678 0.0000000e+0 -0.70710678
vn 0.49857743 -0.70911289 -0.49857743
vn 0.0000000e+0 -1.00000000 -1.1298499e-16
vn -0.49857744 -0.70911287 0.49857744
vn -0.70710678 -1.0690925e-16 0.70710678
vn -0.49857744 0.70911287 0.49857744
vn 0.0000000e+0 1.00000000 -8.2855658e-17
vn 0.49857743 0.70911289 -0.49857743
vn 0.92387953 0.0000000e+0 -0.38268343
vn 0.65142280 -0.70911289 -0.26982816
vn -3.3730954e-10 -1.00000000 -9.6048643e-10
vn -0.65142282 -0.70911288 0.26982816
vn -0.92387954 -3.8181874e-17 0.38268342
vn -0.65142282 0.70911288 0.26982816
vn -3.3730958e-10 1.00000000 -9.6048645e-10
vn 0.65142280 0.70911289 -0.26982816
g Torus5_default
usemtl blue
s 1
f 33//33 41//41 34//34
f 33//33 153//153 40//40
f 34//34 43//43 35//35
f 34//34 153//153 33//33
f 34//34 154//154 153//153
f 34//34 155//155 154//154
f 35//35 43//43 36//36
f 35//35 155//155 34//34
f 36//36 45//45 37//37
f 36//36 155//155 35//35
f 36//36 156//156 155//155
f 36//36 157//157 156//156
f 37//37 45//45 38//38
f 37//37 157//157 36//36
f 38//38 47//47 39//39
f 38//38 157//157 37//37
f 38//38 158//158 157//157
f 38//38 159//159 158//158
f 39//39 47//47 40//40
f 39//39 159//159 38//38
f 40//40 41//41 33//33
f 40//40 48//48 41//41
f 40//40 159//159 39//39
f 40//40 160//160 159//159
f 41//41 42//42 34//34
f 41//41 50//50 42//42
f 41//41 56//56 49//49
f 42//42 43//43 34//34
f 42//42 50//50 43//43
f 43//43 44//44 36//36
f 43//43 52//52 44//44
f 44//44 45//45 36//36
f 44//44 52//52 45//45
f 45//45 46//46 38//38
f 45//45 54//54 46//46
f 46//46 47//47 38//38
f 46//46 54//54 47//47
f 47//47 48//48 40//40
f 47//47 56//56 48//48
f 48//48 56//56 41//41
f 49//49 50//50 41//41
f 49//49 57//57 50//50
f 50//50 51//51 43//43
f 50//50 59//59 51//51
f 51//51 52//52 43//43
f 51//51 59//59 52//52
f 52//52 53//53 45//45
f 52//52 61//61 53//53
f 53//53 54//54 45//45
f 53//53 61//61 54//54
f 54//54 55//55 47//47
f 54//54 63//63 55//55
f 55//55 56//56 47//47
f 55//55 63//63 56//56
f 56//56 57//57 49//49
f 56//56 64//64 57//57
f 57//57 58//58 50//50
f 57//57 66//66 58//58
f 57//57 72//72 65//65
f 58//58 59//59 50//50
f 58//58 66//66 59//59
f 59//59 60//60 52//52
f 59//59 68//68 60//60
f 60//60 61//61 52//52
f 60//60 68//68 61//61
f 61//61 62//62 54//54
f 61//61 70//70 62//62
f 62//62 63//63 54//54
f 62//62 70//70 63//63
f 63//63 64//64 56//56
f 63//63 72//72 64//64
f 64//64 72//72 57//57
f 65//65 66//66 57//57
f 65//65 73//73 66//66
f 66//66 67//67 59//59
f 66//66 75//75 67//67
f 67//67 68//68 59//59
f 67//67 75//75 68//68
f 68//68 69//69 61//61
f 68//68 77//77 69//69
f 69//69 70//70 61//61
f 69//69 77//77 70//70
f 70//70 71//71 63//63
f 70//70 79//79 71//71
f 71//71 72//72 63//63
f 71//71 79//79 72//72
f 72//72 73//73 65//65
f 72//72 80//80 73//73
f 73//73 74//74 66//66
f 73//73 82//82 74//74
f 73//73 88//88 81//81
f 74//74 75//75 66//66
f 74//74 82//82 75//75
f 75//75 76//76 68//68
f 75//75 84//84 76//76
f 76//76 77//77 68//68
f 76//76 84//84 77//77
f 77//77 78//78 70//70
f 77//77 86//86 78//78
f 78//78 79//79 70//70
f 78//78 86//86 79//79
f 79//79 80//80 72//72
f 79//79 88//88 80//80
f 80//80 88//88 73//73
f 81//81 82//82 73//73
f 81//81 89//89 82//82
f 82//82 83//83 75//75
f 82//82 91//91 83//83
f 83//83 84//84 75//75
f 83//83 91//91 84//84
f 84//84 85//85 77//77
f 84//84 93//93 85//85
f 85//85 86//86 77//77
f 85//85 93//93 86//86
f 86//86 87//87 79//79
f 86//86 95//95 87//87
f 87//87 88//88 79//79
f 87//87 95//95 88//88
f 88//88 89//89 81//81
f 88//88 96//96 89//89
f 89//89 90//90 82//82
f 89//89 98//98 90//90
f 89//89 104//104 97//97
f 90//90 91//91 82//82
f 90//90 98//98 91//91
f 91//91 92//92 84//84
f 91//91 100//100 92//92
f 92//92 93//93 84//84
f 92//92 100//100 93//93
f 93//93 94//94 86//86
f 93//93 102//102 94//94
f 94//94 95//95 86//86
f 94//94 102//102 95//95
f 95//95 96//96 88//88
f 95//95 104//104 96//96
f 96//96 104//104 89//89
f 97//97 98//98 89//89
f 97//97 105//105 98//98
f 98//98 99//99 91//91
f 98//98 107//107 99//99
f 99//99 100//100 91//91
f 99//99 107//107 100//100
f 100//100 101//101 93//93
f 100//100 109//109 101//101
f 101//101 102//102 93//93
f 101//101 109//109 102//102
f 102//102 103//103 95//95
f 102//102 111//111 103//103
f 103//103 104//104 95//95
f 103//103 111//111 104//104
f 104//104 105//105 97//97
f 104//104 112//112 105//105
f 105//105 106//106 98//98
f 105//105 114//114 106//106
f 105//105 120//120 113//113
f 106//106 107//107 98//98
f 106//106 114//114 107//107
f 107//107 108//108 100//100
f 107//107 116//116 108//108
f 108//108 109//109 100//100
f 108//108 116//116 109//109
f 109//109 110//110 102//102
f 109//109 118//118 110//110
f 110//110 111//111 102//102
f 110//110 118//118 111//111
f 111//111 112//112 104//104
f 111//111 120//120 112//112
f 112//112 120//120 105//105
f 113//113 114//114 105//105
f 113//113 121//121 114//114
f 114//114 115//115 107//107
f 114//114 123//123 115//115
f 115//115 116//116 107//107
f 115//115 123//123 116//116
f 116//116 117//117 109//109
f 116//116 125//125 117//117
f 117//117 118//118 109//109
f 117//117 125//125 118//118
f 118//118 119//119 111//111
f 118//118 127//127 119//119
f 119//119 120//120 111//111
f 119//119 127//127 120//120
f 120//120 121//121 113//113
f 120//120 128//128 121//121
f 121//121 122//122 114//114
f 121//121 130//130 122//122
f 121//121 136//136 129//129
f 122//122 123//123 114//114
f 122//122 130//130 123//123
f 123//123 124//124 116//116
f 123//123 132//132 124//124
f 124//124 125//125 116//116
f 124//124 132//132 125//125
f 125//125 126//126 118//118
f 125//125 134//134 126//126
f 126//126 127//127 118//118
f 126//126 134//134 127//127
f 127//127 128//128 120//120
f 127//127 136//136 128//128
f 128//128 136//136 121//121
f 129//129 130//130 121//121
f 129//129 137//137 130//130
f 130//130 131//131 123//123
f 130//130 139//139 131//131
f 131//131 132//132 123//123
f 131//131 139//139 132//132
f 132//132 133//133 125//125
f 132//132 141//141 133//133
f 133//133 134//134 125//125
f 133//133 141//141 134//134
f 134//134 135//135 127//127
f 134//134 143//143 135//135
f 135//135 136//136 127//127
f 135//135 143//143 136//136
f 136//136 137//137 129//129
f 136//136 144//144 137//137
f 137//137 138//138 130//130
f 137//137 146//146 138//138
f 137//137 152//152 145//145
f 138//138 139//139 130//130
f 138//138 146//146 139//139
f 139//139 140//140 132//132
f 139//139 148//148 140//140
f 140//140 141//141 132//132
f 140//140 148//148 141//141
f 141//141 142//142 134//134
f 141//141 150//150 142//142
f 142//142 143//143 134//134
f 142//142 150//150 143//143
f 143//143 144//144 136//136
f 143//143 152//152 144//144
f 144//144 152//152 137//137
f 145//145 146//146 137//137
f 145//145 153//153 146//146
f 146//146 147//147 139//139
f 146//146 155//155 147//147
f 147//147 148//148 139//139
f 147//147 155//155 148//148
f 148//148 149//149 141//141
f 148//148 157//157 149//149
f 149//149 150//150 141//141
f 149//149 157//157 150//150
f 150//150 151//151 143//143
f 150//150 159//159 151//151
f 151//151 152//152 143//143
f 151//151 159//159 152//152
f 152//152 153//153 145//145
f 152//152 160//160 153//153
f 153//153 154//154 146//146
f 153//153 160//160 40//40
f 154//154 155//155 146//146
f 155//155 156//156 148//148
f 156//156 157//157 148//148
f 157//157 158//158 150//150
f 158//158 159//159 150//150
f 159//159 160//160 152//152
